<svg width="59" height="55" viewBox="0 0 59 55" fill="none" xmlns="http://www.w3.org/2000/svg">
<path d="M41.7917 45.8333C41.7917 42.0364 36.2885 38.9583 29.5 38.9583C22.7115 38.9583 17.2083 42.0364 17.2083 45.8333M51.625 38.9592C51.625 36.14 48.5912 33.7171 44.25 32.6562M7.375 38.9592C7.375 36.14 10.4088 33.7171 14.75 32.6562M44.25 23.4577C45.7588 22.1989 46.7083 20.3695 46.7083 18.3333C46.7083 14.5364 43.4064 11.4583 39.3333 11.4583C37.4445 11.4583 35.7214 12.1203 34.4167 13.2089M14.75 23.4577C13.2412 22.1989 12.2917 20.3695 12.2917 18.3333C12.2917 14.5364 15.5936 11.4583 19.6667 11.4583C21.5555 11.4583 23.2786 12.1203 24.5833 13.2089M29.5 32.0833C25.4269 32.0833 22.125 29.0053 22.125 25.2083C22.125 21.4114 25.4269 18.3333 29.5 18.3333C33.5731 18.3333 36.875 21.4114 36.875 25.2083C36.875 29.0053 33.5731 32.0833 29.5 32.0833Z" stroke="#AEAEB2" stroke-width="2" stroke-linecap="round" stroke-linejoin="round"/>
</svg>
