<svg width="52" height="52" viewBox="0 0 52 52" fill="none" xmlns="http://www.w3.org/2000/svg">
<path d="M19.5 13H20.2299C20.7598 13 21.025 13 21.2744 13.0599C21.4954 13.1129 21.7077 13.2007 21.9015 13.3195C22.1201 13.4534 22.3078 13.6411 22.6823 14.0156L29.3182 20.6516C29.693 21.0263 29.8793 21.2126 30.0133 21.4313C30.1321 21.6251 30.221 21.837 30.2741 22.0581C30.3333 22.3049 30.3333 22.567 30.3333 23.0862V39M19.5 13H9.96582C8.75237 13 8.14626 13 7.68278 13.2362C7.2751 13.4439 6.94388 13.7751 6.73615 14.1828C6.5 14.6463 6.5 15.2534 6.5 16.4669V42.0335C6.5 43.247 6.5 43.8529 6.73615 44.3163C6.94388 44.724 7.2751 45.0564 7.68278 45.2641C8.14581 45.5 8.75121 45.5 9.96233 45.5L26.869 45.5C28.08 45.5 28.6877 45.5 29.1507 45.2641C29.5584 45.0564 29.8886 44.7246 30.0964 44.3169C30.3325 43.8534 30.3333 43.2465 30.3333 42.033V39M19.5 13V20.3667C19.5 21.5801 19.5 22.1864 19.7362 22.6499C19.9439 23.0576 20.2751 23.3897 20.6828 23.5974C21.1458 23.8333 21.7512 23.8333 22.9623 23.8333H30.3325M21.6667 13.0002V9.96688C21.6667 8.75343 21.6667 8.14626 21.9028 7.68278C22.1105 7.2751 22.4418 6.94388 22.8494 6.73615C23.3129 6.5 23.919 6.5 25.1325 6.5H34.6667M34.6667 6.5H35.3966C35.9265 6.5 36.1917 6.5 36.441 6.55987C36.6621 6.61294 36.8743 6.7007 37.0682 6.8195C37.2868 6.95344 37.4745 7.14115 37.849 7.51563L44.4849 14.1516C44.8596 14.5263 45.0459 14.7126 45.1799 14.9313C45.2987 15.1251 45.3877 15.337 45.4408 15.5581C45.5 15.8049 45.5 16.067 45.5 16.5862V35.533C45.5 36.7465 45.4992 37.3534 45.263 37.8169C45.0553 38.2246 44.7264 38.5564 44.3187 38.7641C43.8556 39 43.2488 39 42.0377 39H30.3333M34.6667 6.5V13.8667C34.6667 15.0801 34.6667 15.6864 34.9028 16.1499C35.1105 16.5576 35.4418 16.8897 35.8494 17.0974C36.3125 17.3333 36.9179 17.3333 38.1289 17.3333H45.4992" stroke="white" stroke-width="2" stroke-linecap="round" stroke-linejoin="round"/>
</svg>
